<mxfile host="app.diagrams.net" modified="2023-05-20T23:44:38.768Z" agent="Mozilla/5.0 (Windows NT 10.0; Win64; x64) AppleWebKit/537.36 (KHTML, like Gecko) Chrome/113.0.0.0 Safari/537.36" etag="EY3HIEglnRL3dRxJ4zqb" version="21.3.2" type="github">
  <diagram name="Page-1" id="la-zmBXX-95Q4-Gv_R6d">
    <mxGraphModel dx="1647" dy="796" grid="1" gridSize="10" guides="1" tooltips="1" connect="1" arrows="1" fold="1" page="1" pageScale="1" pageWidth="827" pageHeight="1169" math="0" shadow="0">
      <root>
        <mxCell id="0" />
        <mxCell id="1" parent="0" />
        <mxCell id="p-QUPAy4OaKFhrN9zP7q-10" value="&lt;sup&gt;FuncionÃ¡rio&lt;/sup&gt;" style="shape=umlActor;verticalLabelPosition=bottom;verticalAlign=top;html=1;" vertex="1" parent="1">
          <mxGeometry x="140" y="30" width="30" height="60" as="geometry" />
        </mxCell>
        <mxCell id="p-QUPAy4OaKFhrN9zP7q-11" value="" style="endArrow=none;html=1;rounded=0;" edge="1" parent="1">
          <mxGeometry width="50" height="50" relative="1" as="geometry">
            <mxPoint x="160" y="723" as="sourcePoint" />
            <mxPoint x="160" y="123" as="targetPoint" />
          </mxGeometry>
        </mxCell>
        <mxCell id="p-QUPAy4OaKFhrN9zP7q-12" value="" style="endArrow=classic;html=1;rounded=0;" edge="1" parent="1">
          <mxGeometry width="50" height="50" relative="1" as="geometry">
            <mxPoint x="160" y="160" as="sourcePoint" />
            <mxPoint x="580" y="160" as="targetPoint" />
          </mxGeometry>
        </mxCell>
        <mxCell id="p-QUPAy4OaKFhrN9zP7q-13" value="fecharMesa( codigo)" style="text;html=1;align=center;verticalAlign=middle;resizable=0;points=[];autosize=1;strokeColor=none;fillColor=none;" vertex="1" parent="1">
          <mxGeometry x="299" y="171" width="130" height="30" as="geometry" />
        </mxCell>
        <mxCell id="p-QUPAy4OaKFhrN9zP7q-14" value="" style="endArrow=none;html=1;rounded=0;" edge="1" parent="1">
          <mxGeometry width="50" height="50" relative="1" as="geometry">
            <mxPoint x="580" y="723" as="sourcePoint" />
            <mxPoint x="580" y="123" as="targetPoint" />
          </mxGeometry>
        </mxCell>
        <mxCell id="p-QUPAy4OaKFhrN9zP7q-15" value="" style="rounded=0;whiteSpace=wrap;html=1;rotation=90;" vertex="1" parent="1">
          <mxGeometry x="540" y="40" width="80" height="40" as="geometry" />
        </mxCell>
        <mxCell id="p-QUPAy4OaKFhrN9zP7q-16" value="Sistema&lt;br&gt;" style="text;html=1;align=center;verticalAlign=middle;resizable=0;points=[];autosize=1;strokeColor=none;fillColor=none;" vertex="1" parent="1">
          <mxGeometry x="545" y="100" width="70" height="30" as="geometry" />
        </mxCell>
        <mxCell id="p-QUPAy4OaKFhrN9zP7q-17" value="" style="endArrow=none;dashed=1;html=1;dashPattern=1 3;strokeWidth=2;rounded=0;" edge="1" parent="1">
          <mxGeometry width="50" height="50" relative="1" as="geometry">
            <mxPoint x="170" y="220" as="sourcePoint" />
            <mxPoint x="580" y="220" as="targetPoint" />
          </mxGeometry>
        </mxCell>
        <mxCell id="p-QUPAy4OaKFhrN9zP7q-18" value="returnValido, consumo, tipoJogos, precosEspeciais" style="text;html=1;align=center;verticalAlign=middle;resizable=0;points=[];autosize=1;strokeColor=none;fillColor=none;" vertex="1" parent="1">
          <mxGeometry x="219" y="238" width="290" height="30" as="geometry" />
        </mxCell>
        <mxCell id="p-QUPAy4OaKFhrN9zP7q-19" value="" style="endArrow=classic;html=1;rounded=0;" edge="1" parent="1">
          <mxGeometry width="50" height="50" relative="1" as="geometry">
            <mxPoint x="160" y="320" as="sourcePoint" />
            <mxPoint x="580" y="320" as="targetPoint" />
          </mxGeometry>
        </mxCell>
        <mxCell id="p-QUPAy4OaKFhrN9zP7q-20" value="confirmarDados() &amp;amp; pagamento (valor)" style="text;html=1;align=center;verticalAlign=middle;resizable=0;points=[];autosize=1;strokeColor=none;fillColor=none;" vertex="1" parent="1">
          <mxGeometry x="250" y="340" width="230" height="30" as="geometry" />
        </mxCell>
        <mxCell id="p-QUPAy4OaKFhrN9zP7q-21" value="" style="endArrow=none;dashed=1;html=1;dashPattern=1 3;strokeWidth=2;rounded=0;" edge="1" parent="1">
          <mxGeometry width="50" height="50" relative="1" as="geometry">
            <mxPoint x="170" y="380" as="sourcePoint" />
            <mxPoint x="580" y="380" as="targetPoint" />
          </mxGeometry>
        </mxCell>
        <mxCell id="p-QUPAy4OaKFhrN9zP7q-22" value="valorErrado &amp;amp; pagamento(valor)" style="text;html=1;align=center;verticalAlign=middle;resizable=0;points=[];autosize=1;strokeColor=none;fillColor=none;" vertex="1" parent="1">
          <mxGeometry x="265" y="388" width="190" height="30" as="geometry" />
        </mxCell>
      </root>
    </mxGraphModel>
  </diagram>
</mxfile>
